PathFileType	4	(X/Y/Z)	C:/Users/opensim2020/Desktop/walking_exp_matlab/subject03_walking10_straight_04.trc																																																																																																																																					
DataRate	CameraRate	NumFrames	NumMarkers	Units	OrigDataRate	OrigDataStartFrame	OrigNumFrames																																																																																																																																	
100	100	6	45	mm	100	3942	317																																																																																																																																	
Frame#	Time	LFHD			RFHD			LBHD			RBHD			C7			T10			CLAV			STRN			RBAK			LSHO			LUPA			LELB			LFRM			LWRA			LWRB			LFIN			RSHO			RUPA			RELB			RFRM			RWRA			RWRB			RFIN			LASI			RASI			LPSI			RPSI			LTHI			LKNE			LTIB			LANK			LHEE			LTOE			RTHI			RKNE			RTIB			RANK			RHEE			RTOE			*39			*40			*41			*42			*43			*44		
		X1	Y1	Z1	X2	Y2	Z2	X3	Y3	Z3	X4	Y4	Z4	X5	Y5	Z5	X6	Y6	Z6	X7	Y7	Z7	X8	Y8	Z8	X9	Y9	Z9	X10	Y10	Z10	X11	Y11	Z11	X12	Y12	Z12	X13	Y13	Z13	X14	Y14	Z14	X15	Y15	Z15	X16	Y16	Z16	X17	Y17	Z17	X18	Y18	Z18	X19	Y19	Z19	X20	Y20	Z20	X21	Y21	Z21	X22	Y22	Z22	X23	Y23	Z23	X24	Y24	Z24	X25	Y25	Z25	X26	Y26	Z26	X27	Y27	Z27	X28	Y28	Z28	X29	Y29	Z29	X30	Y30	Z30	X31	Y31	Z31	X32	Y32	Z32	X33	Y33	Z33	X34	Y34	Z34	X35	Y35	Z35	X36	Y36	Z36	X37	Y37	Z37	X38	Y38	Z38	X39	Y39	Z39	X40	Y40	Z40	X41	Y41	Z41	X42	Y42	Z42	X43	Y43	Z43	X44	Y44	Z44	X45	Y45	Z45
																																																																																																																																								
119	1.18	-187.55707	1625.30798	962.38141	-188.60007	1626.29321	1095.75073	-310.86465	1569.56616	965.52142	-306.97745	1570.55933	1096.20288	-331.6373	1415.63904	1026.46167	-366.91391	1103.55847	1031.09387	-210.64296	1338.11096	1017.0932	-170.72647	1172.76355	1006.8692	-377.27606	1242.35229	1128.01404	-264.86951	1376.69458	865.19678	-273.42181	1179.07385	795.90948	-261.62488	1056.18994	785.69159	-225.16417	931.37292	786.38776	-193.59941	816.61377	817.57318	-220.15282	818.23816	768.09204	-197.71017	736.34857	779.02728	-239.98093	1360.71484	1179.51758	-210.03027	1142.72949	1254.96082	-176.52182	1034.9978	1268.65454	-140.85799	902.69476	1272.27856	-106.17764	809.03656	1235.25793	-126.11755	805.1355	1285.25061	-94.04846	738.30737	1277.44165	-208.98438	940.36401	899.91241	-186.76059	942.01581	1136.80725	-366.34006	956.3576	962.43286	-350.92999	971.20313	1111.21899	-200.04211	641.85236	848.96387	-146.42903	469.8096	866.98743	-264.50015	309.91132	873.55963	-371.78049	132.04216	917.16333	-422.09799	116.03267	958.89331	-255.18549	41.19798	932.27789	-240.83205	646.0036	1174.68054	-234.05783	466.07095	1134.50903	-287.36908	281.96442	1138.5459	-328.53848	69.7188	1087.08289	-377.20993	39.05424	1039.18811	-188.56949	31.58303	1061.70007	-274.51337	1678.45288	1014.0625	NaN	NaN	NaN	NaN	NaN	NaN	NaN	NaN	NaN	NaN	NaN	NaN	NaN	NaN	NaN
120	1.19	-180.22423	1624.81531	962.27948	-181.27112	1625.81677	1095.54956	-303.86908	1569.86426	965.41351	-299.94113	1570.7478	1096.22766	-325.03299	1415.55237	1026.72205	-360.54041	1103.41748	1031.80505	-204.18268	1337.9032	1016.85077	-164.46089	1172.49084	1006.85553	-370.19724	1242.52686	1129.03735	-259.4451	1376.14429	865.20538	-269.19897	1178.60938	795.67969	-258.04031	1055.66418	785.06244	-221.69646	930.85297	785.67938	-190.33354	816.09247	816.91931	-216.7766	817.69769	767.39032	-194.09906	735.94971	778.27563	-232.5687	1360.88574	1179.40845	-201.27327	1143.30774	1255.27368	-167.05022	1035.83289	1269.01477	-130.24333	903.70233	1272.64355	-94.71529	810.63885	1235.60889	-114.73477	806.24335	1285.38232	-82.16235	739.82104	1277.70544	-202.91684	940.61554	900.26483	-180.61415	941.52441	1137.0105	-360.21872	956.35291	962.57587	-344.76483	970.94879	1111.4303	-190.52861	643.00635	849.63879	-135.30768	471.50601	868.56757	-248.3967	307.81564	874.85437	-348.4809	125.50844	918.10028	-397.92328	107.2157	960.00513	-227.64203	40.06284	931.76813	-236.0957	645.4986	1174.61536	-230.66011	465.59641	1134.46716	-285.41125	281.85068	1138.30164	-328.22601	69.83852	1086.93567	-376.51437	38.93269	1039.36462	-188.49113	31.57231	1061.69299	-267.2551	1678.81567	1014.27759	NaN	NaN	NaN	NaN	NaN	NaN	NaN	NaN	NaN	NaN	NaN	NaN	NaN	NaN	NaN
121	1.2	-172.98108	1624.38184	962.112	-173.95805	1625.35095	1095.36511	-296.83478	1569.93945	965.26843	-292.87863	1570.92615	1095.95593	-318.30896	1415.40088	1026.89014	-354.16928	1103.27307	1032.43604	-197.70845	1337.54834	1016.65503	-158.14369	1172.16504	1006.80157	-363.0571	1242.60779	1130.01013	-253.92241	1375.5166	865.15295	-265.03442	1178.04895	795.42529	-254.49695	1055.04382	784.40302	-218.35133	930.24823	784.99512	-186.91879	815.62946	816.28094	-213.24619	817.12323	766.71948	-190.41614	735.53723	777.52924	-225.07806	1361.0321	1179.24976	-192.55664	1143.80798	1255.54285	-157.60345	1036.51282	1269.15088	-119.87045	904.91577	1272.94482	-83.61001	811.97919	1235.87708	-103.57471	807.45703	1285.69165	-70.39716	741.32172	1277.75659	-196.71211	940.74255	900.52722	-174.44724	940.97369	1137.21094	-354.06934	956.27258	962.66687	-338.58545	970.59412	1111.52429	-181.21535	644.13257	850.20612	-124.47491	473.14102	869.94031	-232.36873	305.57294	876.01514	-324.74698	118.94228	918.84192	-373.27557	98.34116	961.3454	-200.18793	39.16882	930.94257	-231.51534	644.99841	1174.46082	-227.47252	465.10327	1134.35889	-283.47656	281.72021	1138.31396	-328.02716	70.04427	1086.88684	-376.43481	39.27404	1039.31433	-188.47047	31.53572	1061.72595	-259.43231	1678.55579	1013.93665	NaN	NaN	NaN	NaN	NaN	NaN	NaN	NaN	NaN	NaN	NaN	NaN	NaN	NaN	NaN
122	1.21	-165.7894	1623.90503	961.83405	-166.65375	1624.82227	1095.13831	-289.93137	1570.09949	965.10144	-285.78888	1570.96704	1095.72791	-311.62054	1415.17834	1027.12476	-347.76279	1103.03027	1032.94153	-191.14302	1337.18958	1016.39154	-151.84422	1171.69617	1006.83057	-355.96219	1242.64148	1130.85217	-248.42661	1374.82666	865.08997	-260.92041	1177.31274	795.16522	-250.9277	1054.44812	783.8313	-214.89764	929.58716	784.44684	-183.59851	815.00952	815.69818	-209.85364	816.51575	766.11292	-186.59691	735.09302	776.80176	-217.59949	1361.07385	1179.04517	-183.89403	1144.24048	1255.73242	-148.38713	1037.21191	1269.38464	-109.71227	906.01746	1273.03479	-72.54158	813.41931	1235.86792	-92.5083	808.5332	1285.63879	-58.69328	742.68652	1277.60303	-190.42223	940.83331	900.65869	-168.38081	940.34473	1137.32068	-347.87021	956.12274	962.68176	-332.45688	970.19489	1111.57556	-172.25729	645.07068	850.65503	-114.14731	474.60519	871.20605	-216.41862	303.17633	877.06885	-300.52136	112.50653	919.71313	-348.02518	89.67249	962.11444	-172.43369	38.71342	930.26544	-227.12201	644.54095	1174.32544	-224.42526	464.66681	1134.25867	-281.74368	281.65616	1138.23291	-327.88522	70.33784	1086.8905	-375.95462	39.24168	1039.42688	-188.41196	31.48238	1061.70166	-251.79906	1678.5824	1013.492	NaN	NaN	NaN	NaN	NaN	NaN	NaN	NaN	NaN	NaN	NaN	NaN	NaN	NaN	NaN
123	1.22	-158.59322	1623.31006	961.53162	-159.36201	1624.26489	1094.84424	-282.85519	1569.95569	964.83984	-278.76526	1570.91663	1095.54846	-304.87967	1414.87854	1027.33057	-341.35953	1102.77673	1033.25952	-184.57547	1336.73181	1016.11554	-145.43292	1171.18896	1006.72839	-348.83499	1242.62231	1131.61694	-242.83604	1374.11108	865.01276	-256.79657	1176.65723	794.90924	-247.18994	1053.75	783.25098	-211.40755	928.94177	783.87292	-180.14221	814.46979	815.12018	-206.41542	815.87134	765.54266	-182.7914	734.6546	776.01251	-210.06502	1361.04504	1178.82446	-175.32436	1144.59753	1255.85046	-139.24582	1037.85266	1269.5426	-99.36325	906.79865	1273.03735	-61.65718	814.729	1235.68066	-81.56214	809.48395	1285.39539	-47.15421	744.04022	1277.10913	-184.08347	940.69739	900.71533	-162.28896	939.67767	1137.37476	-341.71646	955.90363	962.57489	-326.33734	969.78265	1111.46802	-163.64783	645.85522	851.01483	-104.22901	475.81259	872.3808	-200.38486	300.62775	878.07538	-275.83743	106.29478	920.41351	-322.85147	81.4455	962.86737	-144.70006	38.27903	929.98682	-222.77814	644.09497	1174.10522	-221.51997	464.25766	1134.19299	-280.31775	281.62692	1137.9259	-327.72958	70.57281	1086.80347	-375.9393	39.64405	1039.2771	-188.41623	31.54524	1061.76587	-244.69469	1678.505	1013.75537	NaN	NaN	NaN	NaN	NaN	NaN	NaN	NaN	NaN	NaN	NaN	NaN	NaN	NaN	NaN
124	1.23	-151.41261	1622.70398	961.13611	-152.14525	1623.71509	1094.41577	-275.88461	1569.7821	964.52997	-271.6644	1570.71399	1095.17273	-298.05127	1414.57617	1027.50842	-334.99814	1102.49097	1033.54016	-177.92487	1336.20349	1015.82227	-139.0222	1170.61963	1006.69031	-341.72003	1242.55127	1132.23572	-237.16864	1373.3645	864.88269	-252.77414	1175.91577	794.59937	-243.57388	1053.0929	782.66541	-207.93242	928.24341	783.38953	-176.80676	813.76703	814.64728	-203.02989	815.17761	765.03308	-178.98305	734.18909	775.29932	-202.51335	1360.89856	1178.5481	-166.78427	1144.83557	1255.89893	-130.27553	1038.31372	1269.64001	-89.50961	907.67389	1272.88062	-50.97906	815.96631	1235.27148	-70.74032	810.33008	1285.00952	-35.73146	745.29108	1276.46082	-177.83525	940.42297	900.73285	-156.21977	938.99481	1137.43689	-335.444	955.63324	962.38525	-320.22806	969.36218	1111.35107	-155.38918	646.33679	851.25665	-94.82676	476.73511	873.44922	-184.25105	297.92896	878.88159	-250.77068	100.26591	921.11841	-296.37518	73.41518	963.77344	-116.72825	38.2435	930.01807	-218.54993	643.6734	1173.90869	-218.7213	463.84055	1134.09253	-278.7688	281.57809	1137.94702	-327.57178	70.81599	1086.73596	-375.90482	40.11827	1039.16663	-188.33086	31.4992	1061.77295	-237.16612	1678.35376	1013.19049	NaN	NaN	NaN	NaN	NaN	NaN	NaN	NaN	NaN	NaN	NaN	NaN	NaN	NaN	NaN
